<svg version="1.1" id="Layer_1" xmlns="http://www.w3.org/2000/svg" xmlns:xlink="http://www.w3.org/1999/xlink" x="0px" y="0px"
	 width="100%" viewBox="0 0 1024 768" enable-background="new 0 0 1024 768" xml:space="preserve">
<path fill="#000000" opacity="1.000000" stroke="none" 
	d="
M491.813782,438.901489 
	C475.493958,446.530609 459.520782,454.010864 443.531952,461.457581 
	C441.197021,462.545105 438.943390,464.331177 436.305237,461.683868 
	C433.805847,459.175751 435.568878,457.049500 436.568146,454.906555 
	C451.547119,422.783386 466.585693,390.688019 481.552063,358.558990 
	C482.595154,356.319824 484.006989,354.754211 486.257660,353.703705 
	C518.979736,338.429626 551.683105,323.115234 584.379272,307.785553 
	C586.334167,306.868988 588.011658,306.447632 589.788391,308.272705 
	C591.516602,310.047943 591.258911,311.686829 590.321167,313.690033 
	C574.940918,346.545654 559.580505,379.410645 544.297180,412.311432 
	C543.191223,414.692230 541.290405,415.726166 539.171082,416.718567 
	C523.498108,424.057281 507.827057,431.400208 491.813782,438.901489 
z"/>
<path fill="#000000" opacity="1.000000" stroke="none" 
	d="
M395.921265,289.910034 
	C383.958771,304.920746 375.253540,321.243469 369.200012,339.117126 
	C362.530792,358.808777 349.461884,372.782898 330.034637,380.572113 
	C328.374542,381.237701 326.745514,382.213013 323.793549,381.641937 
	C325.017609,333.903931 341.293304,292.120178 373.652740,257.042175 
	C410.178467,217.447861 455.793732,197.376663 510.230530,195.458130 
	C509.255585,202.655106 506.215057,207.821289 503.126007,212.876724 
	C494.811188,226.484589 482.916473,235.975830 467.881592,240.923233 
	C439.251343,250.344360 415.354889,266.471497 395.921265,289.910034 
z"/>
<path fill="#000000" opacity="1.000000" stroke="none" 
	d="
M340.911865,394.960632 
	C354.930511,403.925690 364.132019,416.133270 369.464691,431.486603 
	C386.186615,479.630554 418.738190,512.056702 466.834015,528.802246 
	C486.925690,535.797607 500.949249,549.016663 508.911011,568.694763 
	C509.510406,570.176208 510.526978,571.677307 509.403564,574.397949 
	C463.359070,573.273560 422.527893,557.920410 387.964935,527.101318 
	C346.729584,490.332611 325.709900,443.892883 323.587433,387.658661 
	C330.395264,388.919342 335.445007,391.986389 340.911865,394.960632 
z"/>
<path fill="#000000" opacity="1.000000" stroke="none" 
	d="
M578.897522,520.830322 
	C617.046448,501.541626 642.845520,471.907104 656.594055,431.859283 
	C663.240112,412.500214 675.718567,398.593842 694.360107,390.202209 
	C695.873230,389.521027 697.453125,388.974243 699.033508,388.462372 
	C699.788818,388.217712 700.618103,388.201477 702.443726,387.926910 
	C701.267395,435.691956 684.953247,476.914398 653.520996,512.114319 
	C610.549255,560.236877 550.497986,575.665649 516.521667,573.666992 
	C515.679932,571.220520 517.004639,569.139343 517.889771,567.088745 
	C525.845032,548.657715 539.375793,536.084778 558.174072,529.174072 
	C565.052429,526.645386 572.010620,524.330872 578.897522,520.830322 
z"/>
<path fill="#000000" opacity="1.000000" stroke="none" 
	d="
M639.220459,243.758728 
	C687.060608,286.233063 703.550842,345.662872 701.690430,382.236237 
	C695.300232,381.014801 689.775879,378.048676 684.566650,374.676422 
	C671.400940,366.153351 662.199036,354.332214 657.099670,339.517731 
	C640.587708,291.547394 608.674072,258.786194 560.755310,241.936157 
	C540.257019,234.728165 525.503906,221.672592 517.366028,201.390549 
	C516.932739,200.310577 516.531128,199.211960 516.215820,198.093536 
	C516.091248,197.651642 516.243408,197.131744 516.326660,195.591492 
	C563.037292,197.057907 603.871826,212.770798 639.220459,243.758728 
z"/>
</svg>